<svg version="1.1" id="Layer_1" xmlns="http://www.w3.org/2000/svg" xmlns:xlink="http://www.w3.org/1999/xlink" x="0px" y="0px"
	 width="100%" viewBox="0 0 600 600" enable-background="new 0 0 600 600" xml:space="preserve">
<path fill="#000000" opacity="1.000000" stroke="none" 
	d="
M1.000000,306.000000 
	C1.000000,204.369492 1.000000,102.738983 1.000000,1.054238 
	C200.892685,1.054238 400.785400,1.054238 601.000000,1.054238 
	C601.000000,102.356430 601.000000,203.713211 600.577881,305.761444 
	C599.658447,306.497375 599.161072,306.580719 598.663696,306.580841 
	C539.669861,306.591980 480.676086,306.599609 421.682281,306.584717 
	C420.422913,306.584381 419.163635,306.321350 416.984528,306.078278 
	C428.830200,284.842499 440.352783,264.185974 452.248810,242.859924 
	C440.261322,242.859924 429.172272,242.859924 417.319183,242.859924 
	C424.488831,224.036469 431.436279,205.796448 438.505280,187.237335 
	C346.401794,187.237335 255.003555,187.237335 163.132004,187.237335 
	C170.242493,205.876450 177.210709,224.142609 184.477661,243.191864 
	C172.685425,243.191864 161.695404,243.191864 150.079575,243.191864 
	C161.942871,264.489471 173.400620,285.058990 185.142853,306.139252 
	C182.873093,306.238953 181.404617,306.359650 179.936111,306.359894 
	C121.775497,306.369385 63.614876,306.370636 5.454265,306.352478 
	C3.969474,306.352020 2.484754,306.122620 1.000000,306.000000 
z"/>
<path fill="#000000" opacity="1.000000" stroke="none" 
	d="
M601.000000,311.000000 
	C601.000000,407.631287 601.000000,504.262573 601.000000,600.946899 
	C401.108612,600.946899 201.217178,600.946899 1.000000,600.946899 
	C1.000000,504.644257 1.000000,408.288177 1.224734,311.109497 
	C2.681059,311.600494 4.038125,312.818176 5.125463,314.241882 
	C21.903339,336.210480 38.703407,358.162781 55.326599,380.248138 
	C57.469269,383.094879 59.647881,384.102631 63.171535,384.094269 
	C116.645836,383.967773 170.120590,384.027924 223.594879,383.899750 
	C227.254761,383.890991 229.536774,385.119995 232.133545,387.655304 
	C236.864578,392.274475 241.923065,396.812683 247.552505,400.213409 
	C272.612122,415.351715 299.766571,418.010468 327.995514,412.287964 
	C344.577301,408.926575 359.244720,401.671967 370.080597,388.324554 
	C372.878510,384.878174 375.544495,383.902344 379.640717,383.911224 
	C432.781891,384.026398 485.923431,383.975403 539.064636,384.080322 
	C542.365234,384.086823 544.466003,383.175934 546.514648,380.458679 
	C563.355896,358.120270 580.362915,335.906586 597.388794,313.708130 
	C598.270569,312.558472 599.781860,311.891632 601.000000,311.000000 
z"/>
<path fill="#F70505" opacity="1.000000" stroke="none" 
	d="
M601.000000,310.583374 
	C599.781860,311.891632 598.270569,312.558472 597.388794,313.708130 
	C580.362915,335.906586 563.355896,358.120270 546.514648,380.458679 
	C544.466003,383.175934 542.365234,384.086823 539.064636,384.080322 
	C485.923431,383.975403 432.781891,384.026398 379.640717,383.911224 
	C375.544495,383.902344 372.878510,384.878174 370.080597,388.324554 
	C359.244720,401.671967 344.577301,408.926575 327.995514,412.287964 
	C299.766571,418.010468 272.612122,415.351715 247.552505,400.213409 
	C241.923065,396.812683 236.864578,392.274475 232.133545,387.655304 
	C229.536774,385.119995 227.254761,383.890991 223.594879,383.899750 
	C170.120590,384.027924 116.645836,383.967773 63.171535,384.094269 
	C59.647881,384.102631 57.469269,383.094879 55.326599,380.248138 
	C38.703407,358.162781 21.903339,336.210480 5.125463,314.241882 
	C4.038125,312.818176 2.681059,311.600494 1.224734,310.643494 
	C1.000000,309.611115 1.000000,308.222198 1.000000,306.416656 
	C2.484754,306.122620 3.969474,306.352020 5.454265,306.352478 
	C63.614876,306.370636 121.775497,306.369385 179.936111,306.359894 
	C181.404617,306.359650 182.873093,306.238953 185.142853,306.139252 
	C173.400620,285.058990 161.942871,264.489471 150.079575,243.191864 
	C161.695404,243.191864 172.685425,243.191864 184.477661,243.191864 
	C177.210709,224.142609 170.242493,205.876450 163.132004,187.237335 
	C255.003555,187.237335 346.401794,187.237335 438.505280,187.237335 
	C431.436279,205.796448 424.488831,224.036469 417.319183,242.859924 
	C429.172272,242.859924 440.261322,242.859924 452.248810,242.859924 
	C440.352783,264.185974 428.830200,284.842499 416.984528,306.078278 
	C419.163635,306.321350 420.422913,306.584381 421.682281,306.584717 
	C480.676086,306.599609 539.669861,306.591980 598.663696,306.580841 
	C599.161072,306.580719 599.658447,306.497375 600.577881,306.226440 
	C601.000000,307.388885 601.000000,308.777802 601.000000,310.583374 
M375.774048,380.571045 
	C429.598541,380.632660 483.423096,380.665710 537.247314,380.825134 
	C540.565613,380.834961 542.669128,379.894653 544.705261,377.195190 
	C560.850586,355.790497 577.168823,334.516296 593.417480,313.189453 
	C594.052551,312.355865 594.521179,311.395538 595.425232,309.903748 
	C533.656372,309.903748 472.609650,309.903748 410.913116,309.903748 
	C422.832458,288.560883 434.439423,267.777466 446.554077,246.084900 
	C434.652496,246.084900 423.823059,246.084900 412.414398,246.084900 
	C419.585815,227.287964 426.482788,209.210419 433.572083,190.628723 
	C344.785248,190.628723 256.740906,190.628723 168.096558,190.628723 
	C175.158585,209.165359 182.135254,227.477951 189.403580,246.556122 
	C177.790512,246.556122 167.099335,246.556122 155.858856,246.556122 
	C167.752426,267.907715 179.283752,288.609070 191.204346,310.009186 
	C129.290817,310.009186 68.261955,310.009186 6.409592,310.009186 
	C7.613301,311.679932 8.330539,312.724731 9.097002,313.732056 
	C25.130581,334.804260 41.223904,355.831482 57.143181,376.989655 
	C59.272789,379.820099 61.467896,380.848175 64.997429,380.836426 
	C118.488129,380.658813 171.979431,380.665009 225.470184,380.496307 
	C228.942276,380.485352 231.097565,381.606262 233.523376,384.097656 
	C238.018341,388.714233 242.774323,393.360748 248.205078,396.733154 
	C272.018311,411.520599 298.105408,414.449127 325.153442,409.416962 
	C343.462341,406.010712 359.628937,398.332642 370.622467,382.244324 
	C371.331299,381.207001 373.412262,381.107269 375.774048,380.571045 
z"/>
<path fill="#FFF9F9" opacity="1.000000" stroke="none" 
	d="
M375.314484,380.571198 
	C373.412262,381.107269 371.331299,381.207001 370.622467,382.244324 
	C359.628937,398.332642 343.462341,406.010712 325.153442,409.416962 
	C298.105408,414.449127 272.018311,411.520599 248.205078,396.733154 
	C242.774323,393.360748 238.018341,388.714233 233.523376,384.097656 
	C231.097565,381.606262 228.942276,380.485352 225.470184,380.496307 
	C171.979431,380.665009 118.488129,380.658813 64.997429,380.836426 
	C61.467896,380.848175 59.272789,379.820099 57.143181,376.989655 
	C41.223904,355.831482 25.130581,334.804260 9.097002,313.732056 
	C8.330539,312.724731 7.613301,311.679932 6.409592,310.009186 
	C68.261955,310.009186 129.290817,310.009186 191.204346,310.009186 
	C179.283752,288.609070 167.752426,267.907715 155.858856,246.556122 
	C167.099335,246.556122 177.790512,246.556122 189.403580,246.556122 
	C182.135254,227.477951 175.158585,209.165359 168.096558,190.628723 
	C256.740906,190.628723 344.785248,190.628723 433.572083,190.628723 
	C426.482788,209.210419 419.585815,227.287964 412.414398,246.084900 
	C423.823059,246.084900 434.652496,246.084900 446.554077,246.084900 
	C434.439423,267.777466 422.832458,288.560883 410.913116,309.903748 
	C472.609650,309.903748 533.656372,309.903748 595.425232,309.903748 
	C594.521179,311.395538 594.052551,312.355865 593.417480,313.189453 
	C577.168823,334.516296 560.850586,355.790497 544.705261,377.195190 
	C542.669128,379.894653 540.565613,380.834961 537.247314,380.825134 
	C483.423096,380.665710 429.598541,380.632660 375.314484,380.571198 
M232.744614,330.738922 
	C235.946884,339.116425 238.625290,347.745514 242.495010,355.802460 
	C246.570679,364.288208 251.061676,372.760681 256.631378,380.309113 
	C276.611725,407.387848 329.044495,412.848602 350.344421,374.853882 
	C354.232300,367.918671 357.944336,360.793060 360.823792,353.399475 
	C376.614197,312.854279 392.126587,272.200775 407.719086,231.578568 
	C411.689728,221.234100 415.604462,210.868210 419.722992,200.044037 
	C340.357635,200.044037 261.677368,200.044037 182.307938,200.044037 
	C199.110443,243.656189 215.752274,286.851349 232.744614,330.738922 
M164.500031,319.088715 
	C118.805527,319.088715 73.111023,319.088715 26.669188,319.088715 
	C28.173769,321.168396 29.097839,322.506989 30.083435,323.798615 
	C40.887291,337.957214 51.782799,352.047119 62.441616,366.313965 
	C64.546654,369.131531 66.654266,370.263306 70.224281,370.254028 
	C119.525597,370.126312 168.827347,370.169647 218.128983,370.159058 
	C219.696548,370.158722 221.264099,370.030090 223.441986,369.934509 
	C213.962311,353.148254 204.874939,336.950531 195.592224,320.865601 
	C194.993652,319.828400 192.896286,319.190948 191.481964,319.165833 
	C182.823578,319.012054 174.161133,319.088806 164.500031,319.088715 
M381.836426,364.420532 
	C380.895020,366.117035 379.953644,367.813568 378.774719,369.938141 
	C379.922546,370.048431 380.523987,370.156769 381.125427,370.156860 
	C431.937469,370.165680 482.749634,370.195251 533.561218,370.043091 
	C535.296997,370.037903 537.549744,368.608582 538.679321,367.156677 
	C550.128296,352.440216 561.396729,337.583221 572.702820,322.755768 
	C573.453613,321.771149 574.098877,320.706024 575.114868,319.202271 
	C573.783936,319.144135 573.162964,319.093292 572.542053,319.093231 
	C518.564636,319.089294 464.587128,319.057739 410.610260,319.229828 
	C408.858795,319.235413 406.404114,320.909882 405.477539,322.504028 
	C397.542053,336.156769 389.883820,349.970703 381.836426,364.420532 
z"/>
<path fill="#FF0303" opacity="1.000000" stroke="none" 
	d="
M232.569366,330.392700 
	C215.752274,286.851349 199.110443,243.656189 182.307938,200.044037 
	C261.677368,200.044037 340.357635,200.044037 419.722992,200.044037 
	C415.604462,210.868210 411.689728,221.234100 407.719086,231.578568 
	C392.126587,272.200775 376.614197,312.854279 360.823792,353.399475 
	C357.944336,360.793060 354.232300,367.918671 350.344421,374.853882 
	C329.044495,412.848602 276.611725,407.387848 256.631378,380.309113 
	C251.061676,372.760681 246.570679,364.288208 242.495010,355.802460 
	C238.625290,347.745514 235.946884,339.116425 232.569366,330.392700 
M294.914612,345.269226 
	C295.450378,343.953705 295.986176,342.638214 296.479584,341.426666 
	C289.454926,338.888184 282.938721,335.507935 276.045746,334.327423 
	C268.978668,333.117157 261.543030,334.059174 254.217224,334.059174 
	C254.217224,330.693512 254.217224,327.937500 254.217224,325.414612 
	C257.332977,324.863586 260.173187,324.361298 263.125732,323.839142 
	C258.212738,311.423462 258.318695,304.870117 265.631439,298.130371 
	C270.993683,293.188324 270.339569,287.978729 269.835144,282.082764 
	C260.541534,284.129578 251.350174,289.295746 245.554337,295.616364 
	C238.462723,303.350067 236.342804,313.321747 241.375168,322.346985 
	C244.269394,327.537598 248.589066,332.489105 253.418030,335.935638 
	C265.455566,344.527191 279.362976,348.039764 293.893341,348.712799 
	C290.472168,350.180298 287.050995,351.647766 283.186035,353.305603 
	C283.186035,354.252594 283.186035,355.932556 283.186035,357.557343 
	C300.288269,357.557343 316.996155,357.557343 333.991852,357.557343 
	C333.870697,355.621948 333.771271,354.033752 333.726624,353.320526 
	C329.055847,351.479523 325.048096,349.899841 321.040344,348.320190 
	C335.746674,344.846436 347.566895,337.721588 358.351685,327.690063 
	C357.087219,326.489655 356.088806,325.541809 354.890991,324.404663 
	C345.105103,332.938843 334.264923,338.722565 321.729553,341.146820 
	C321.102509,341.268097 320.788116,343.005890 320.119415,344.494263 
	C320.083405,344.672272 320.047394,344.850250 319.253845,344.744965 
	C318.662842,340.824890 317.594757,336.908875 317.561035,332.984009 
	C317.387909,312.833710 317.476440,292.681122 317.489716,272.529327 
	C317.490692,271.090546 317.620789,269.651825 317.716125,267.693787 
	C332.492401,269.134125 348.443268,263.016144 359.870056,278.062500 
	C361.284180,276.808929 362.235321,275.965820 363.211945,275.100098 
	C359.751617,270.481812 357.014740,266.257935 353.658234,262.603027 
	C352.103943,260.910522 349.357574,259.423065 347.125519,259.385223 
	C331.141907,259.114197 315.151550,259.240417 299.163361,259.240387 
	C296.884094,259.240387 294.604858,259.240356 292.365875,259.240356 
	C292.365875,262.414032 292.365875,264.983032 292.365875,267.833130 
	C294.647736,267.833130 296.593323,267.833130 298.946716,267.833130 
	C298.946716,286.552277 298.946716,304.981049 298.946716,323.816406 
	C302.286438,324.405884 305.299286,324.937653 308.236877,325.456146 
	C308.236877,328.274719 308.236877,330.889648 308.236877,333.958954 
	C305.104584,333.958954 302.184692,333.958954 299.286072,333.958954 
	C298.994293,336.366119 299.114624,338.458771 298.427399,340.239868 
	C297.620300,342.331665 296.111755,344.152832 294.914612,345.269226 
M332.237244,244.383179 
	C331.042297,242.783234 329.606018,241.308502 328.698334,239.559464 
	C326.137787,234.625519 322.176575,233.621033 316.849579,233.696457 
	C295.538208,233.998108 274.178864,234.611176 252.920929,233.503357 
	C241.483582,232.907333 234.068054,236.280273 228.721237,246.076370 
	C227.208862,248.847214 226.779617,250.290512 230.048248,251.896698 
	C241.339233,237.439255 257.204712,243.373840 271.979248,242.016953 
	C271.979248,264.836212 272.045197,286.957214 271.951477,309.077576 
	C271.904419,320.185028 268.128876,324.516968 257.131226,326.771210 
	C256.687225,326.862213 256.290039,327.181488 255.923080,327.367950 
	C255.923080,328.933350 255.923080,330.346588 255.923080,332.121429 
	C271.979370,332.121429 287.772278,332.125244 303.565216,332.112183 
	C304.534760,332.111389 305.504211,331.977325 306.752563,331.884521 
	C306.804993,330.878265 306.909637,330.092194 306.868561,329.313751 
	C306.827728,328.540466 306.640350,327.774872 306.534088,327.111023 
	C293.515198,324.341064 290.288910,320.365723 290.275330,307.226410 
	C290.254700,287.243011 290.264496,267.259552 290.278992,247.276138 
	C290.280151,245.667328 290.417419,244.058594 290.515564,241.924637 
	C305.382141,243.441681 321.382477,237.408508 332.316589,251.942093 
	C333.819916,250.997650 334.907410,250.314438 336.051300,249.595810 
	C334.646454,247.635757 333.684418,246.293518 332.237244,244.383179 
M353.734039,299.649231 
	C355.365631,299.649231 356.997223,299.649231 359.821564,299.649231 
	C354.426910,293.715851 350.107208,288.964783 345.829803,284.260223 
	C336.177216,288.921387 328.356079,281.581207 319.584137,281.075562 
	C317.550537,285.276917 320.903717,285.246155 323.345581,285.667267 
	C334.485565,287.588684 345.009003,290.825043 353.734039,299.649231 
M265.410767,270.670319 
	C272.074829,269.021973 270.033417,264.000610 269.940765,258.025726 
	C267.180420,259.637543 264.888489,260.371674 263.494080,261.916138 
	C260.616150,265.103851 258.372070,268.856689 255.571960,272.123993 
	C253.292236,274.784058 254.452103,276.025879 256.736450,277.203552 
	C259.523285,275.041931 262.125366,273.023651 265.410767,270.670319 
M295.168213,278.043427 
	C289.046661,278.243988 293.117065,282.438263 291.963959,285.159241 
	C294.117371,284.746155 295.667725,284.448730 297.954803,284.010010 
	C297.194336,281.704468 296.592194,279.878998 295.168213,278.043427 
z"/>
<path fill="#FF0101" opacity="1.000000" stroke="none" 
	d="
M165.000031,319.088715 
	C174.161133,319.088806 182.823578,319.012054 191.481964,319.165833 
	C192.896286,319.190948 194.993652,319.828400 195.592224,320.865601 
	C204.874939,336.950531 213.962311,353.148254 223.441986,369.934509 
	C221.264099,370.030090 219.696548,370.158722 218.128983,370.159058 
	C168.827347,370.169647 119.525597,370.126312 70.224281,370.254028 
	C66.654266,370.263306 64.546654,369.131531 62.441616,366.313965 
	C51.782799,352.047119 40.887291,337.957214 30.083435,323.798615 
	C29.097839,322.506989 28.173769,321.168396 26.669188,319.088715 
	C73.111023,319.088715 118.805527,319.088715 165.000031,319.088715 
z"/>
<path fill="#FF0101" opacity="1.000000" stroke="none" 
	d="
M381.989563,364.078491 
	C389.883820,349.970703 397.542053,336.156769 405.477539,322.504028 
	C406.404114,320.909882 408.858795,319.235413 410.610260,319.229828 
	C464.587128,319.057739 518.564636,319.089294 572.542053,319.093231 
	C573.162964,319.093292 573.783936,319.144135 575.114868,319.202271 
	C574.098877,320.706024 573.453613,321.771149 572.702820,322.755768 
	C561.396729,337.583221 550.128296,352.440216 538.679321,367.156677 
	C537.549744,368.608582 535.296997,370.037903 533.561218,370.043091 
	C482.749634,370.195251 431.937469,370.165680 381.125427,370.156860 
	C380.523987,370.156769 379.922546,370.048431 378.774719,369.938141 
	C379.953644,367.813568 380.895020,366.117035 381.989563,364.078491 
z"/>
<path fill="#FFFDFD" opacity="1.000000" stroke="none" 
	d="
M332.479828,244.667236 
	C333.684418,246.293518 334.646454,247.635757 336.051300,249.595810 
	C334.907410,250.314438 333.819916,250.997650 332.316589,251.942093 
	C321.382477,237.408508 305.382141,243.441681 290.515564,241.924637 
	C290.417419,244.058594 290.280151,245.667328 290.278992,247.276138 
	C290.264496,267.259552 290.254700,287.243011 290.275330,307.226410 
	C290.288910,320.365723 293.515198,324.341064 306.534088,327.111023 
	C306.640350,327.774872 306.827728,328.540466 306.868561,329.313751 
	C306.909637,330.092194 306.804993,330.878265 306.752563,331.884521 
	C305.504211,331.977325 304.534760,332.111389 303.565216,332.112183 
	C287.772278,332.125244 271.979370,332.121429 255.923080,332.121429 
	C255.923080,330.346588 255.923080,328.933350 255.923080,327.367950 
	C256.290039,327.181488 256.687225,326.862213 257.131226,326.771210 
	C268.128876,324.516968 271.904419,320.185028 271.951477,309.077576 
	C272.045197,286.957214 271.979248,264.836212 271.979248,242.016953 
	C257.204712,243.373840 241.339233,237.439255 230.048248,251.896698 
	C226.779617,250.290512 227.208862,248.847214 228.721237,246.076370 
	C234.068054,236.280273 241.483582,232.907333 252.920929,233.503357 
	C274.178864,234.611176 295.538208,233.998108 316.849579,233.696457 
	C322.176575,233.621033 326.137787,234.625519 328.698334,239.559464 
	C329.606018,241.308502 331.042297,242.783234 332.479828,244.667236 
z"/>
<path fill="#FFF9F9" opacity="1.000000" stroke="none" 
	d="
M320.328186,343.991028 
	C320.788116,343.005890 321.102509,341.268097 321.729553,341.146820 
	C334.264923,338.722565 345.105103,332.938843 354.890991,324.404663 
	C356.088806,325.541809 357.087219,326.489655 358.351685,327.690063 
	C347.566895,337.721588 335.746674,344.846436 321.040344,348.320190 
	C325.048096,349.899841 329.055847,351.479523 333.726624,353.320526 
	C333.771271,354.033752 333.870697,355.621948 333.991852,357.557343 
	C316.996155,357.557343 300.288269,357.557343 283.186035,357.557343 
	C283.186035,355.932556 283.186035,354.252594 283.186035,353.305603 
	C287.050995,351.647766 290.472168,350.180298 293.977417,348.379517 
	C294.061523,348.046204 293.984406,348.078125 294.388062,347.950073 
	C294.864044,347.189362 294.936401,346.556732 294.991425,345.970703 
	C294.974060,346.017365 294.907440,346.091370 294.907440,346.091370 
	C296.111755,344.152832 297.620300,342.331665 298.427399,340.239868 
	C299.114624,338.458771 298.994293,336.366119 299.286072,333.958954 
	C302.184692,333.958954 305.104584,333.958954 308.236877,333.958954 
	C308.236877,330.889648 308.236877,328.274719 308.236877,325.456146 
	C305.299286,324.937653 302.286438,324.405884 298.946716,323.816406 
	C298.946716,304.981049 298.946716,286.552277 298.946716,267.833130 
	C296.593323,267.833130 294.647736,267.833130 292.365875,267.833130 
	C292.365875,264.983032 292.365875,262.414032 292.365875,259.240356 
	C294.604858,259.240356 296.884094,259.240387 299.163361,259.240387 
	C315.151550,259.240417 331.141907,259.114197 347.125519,259.385223 
	C349.357574,259.423065 352.103943,260.910522 353.658234,262.603027 
	C357.014740,266.257935 359.751617,270.481812 363.211945,275.100098 
	C362.235321,275.965820 361.284180,276.808929 359.870056,278.062500 
	C348.443268,263.016144 332.492401,269.134125 317.716125,267.693787 
	C317.620789,269.651825 317.490692,271.090546 317.489716,272.529327 
	C317.476440,292.681122 317.387909,312.833710 317.561035,332.984009 
	C317.594757,336.908875 318.662842,340.824890 319.794128,345.059692 
	C320.727234,345.303864 321.119995,345.233337 321.512787,345.162842 
	C321.117920,344.772247 320.723053,344.381622 320.328186,343.991028 
z"/>
<path fill="#FFFAFA" opacity="1.000000" stroke="none" 
	d="
M294.101837,348.035461 
	C279.362976,348.039764 265.455566,344.527191 253.418030,335.935638 
	C248.589066,332.489105 244.269394,327.537598 241.375168,322.346985 
	C236.342804,313.321747 238.462723,303.350067 245.554337,295.616364 
	C251.350174,289.295746 260.541534,284.129578 269.835144,282.082764 
	C270.339569,287.978729 270.993683,293.188324 265.631439,298.130371 
	C258.318695,304.870117 258.212738,311.423462 263.125732,323.839142 
	C260.173187,324.361298 257.332977,324.863586 254.217224,325.414612 
	C254.217224,327.937500 254.217224,330.693512 254.217224,334.059174 
	C261.543030,334.059174 268.978668,333.117157 276.045746,334.327423 
	C282.938721,335.507935 289.454926,338.888184 296.479584,341.426666 
	C295.986176,342.638214 295.450378,343.953705 294.911011,345.680298 
	C294.907440,346.091370 294.974060,346.017365 294.580139,346.085632 
	C294.118958,346.795319 294.051697,347.436737 293.984406,348.078125 
	C293.984406,348.078125 294.061523,348.046204 294.101837,348.035461 
z"/>
<path fill="#FFF2F2" opacity="1.000000" stroke="none" 
	d="
M353.493774,299.398529 
	C345.009003,290.825043 334.485565,287.588684 323.345581,285.667267 
	C320.903717,285.246155 317.550537,285.276917 319.584137,281.075562 
	C328.356079,281.581207 336.177216,288.921387 345.829803,284.260223 
	C350.107208,288.964783 354.426910,293.715851 359.821564,299.649231 
	C356.997223,299.649231 355.365631,299.649231 353.493774,299.398529 
z"/>
<path fill="#FFF4F4" opacity="1.000000" stroke="none" 
	d="
M265.069092,270.837830 
	C262.125366,273.023651 259.523285,275.041931 256.736450,277.203552 
	C254.452103,276.025879 253.292236,274.784058 255.571960,272.123993 
	C258.372070,268.856689 260.616150,265.103851 263.494080,261.916138 
	C264.888489,260.371674 267.180420,259.637543 269.940765,258.025726 
	C270.033417,264.000610 272.074829,269.021973 265.069092,270.837830 
z"/>
<path fill="#FFEAEA" opacity="1.000000" stroke="none" 
	d="
M295.579163,278.048462 
	C296.592194,279.878998 297.194336,281.704468 297.954803,284.010010 
	C295.667725,284.448730 294.117371,284.746155 291.963959,285.159241 
	C293.117065,282.438263 289.046661,278.243988 295.579163,278.048462 
z"/>
<path fill="#FFF3F3" opacity="1.000000" stroke="none" 
	d="
M320.223816,344.242645 
	C320.723053,344.381622 321.117920,344.772247 321.512787,345.162842 
	C321.119995,345.233337 320.727234,345.303864 320.172913,345.201294 
	C320.047394,344.850250 320.083405,344.672272 320.223816,344.242645 
z"/>
<path fill="#FF0303" opacity="1.000000" stroke="none" 
	d="
M294.388062,347.950073 
	C294.051697,347.436737 294.118958,346.795319 294.597534,346.039001 
	C294.936401,346.556732 294.864044,347.189362 294.388062,347.950073 
z"/>
</svg>